<?xml version="1.0" standalone="no"?><!DOCTYPE svg PUBLIC "-//W3C//DTD SVG 1.1//EN" "http://www.w3.org/Graphics/SVG/1.1/DTD/svg11.dtd"><svg t="1678814605258" class="icon" viewBox="0 0 1024 1024" version="1.1" xmlns="http://www.w3.org/2000/svg" p-id="1629" xmlns:xlink="http://www.w3.org/1999/xlink" width="200" height="200"><path d="M0 0h1024v1024H0z" fill="#FF0000" fill-opacity="0" p-id="1630"></path><path d="M755.818667 256H268.16A76.096 76.096 0 0 0 192 332.010667v558.293333l0.085333 3.690667c3.114667 59.690667 80.810667 83.2 116.16 33.28l14.037334-19.861334 54.144 40.042667 3.626666 2.496a64 64 0 0 0 72.469334-2.496L512 903.466667l59.477333 43.989333 3.626667 2.496a64 64 0 0 0 72.469333-2.496l54.122667-40.042667 14.08 19.84C751.808 978.218667 832 952.704 832 890.304V332.010667A76.096 76.096 0 0 0 755.818667 256z m0 64c6.72 0 12.181333 5.376 12.181333 12.010667v558.293333l-31.701333-44.8c-17.322667-12.8-41.173333-12.8-58.517334 0L609.514667 896l-68.266667-50.474667c-17.322667-12.821333-41.173333-12.821333-58.496 0L414.485333 896l-68.266666-50.474667c-17.344-12.821333-41.173333-12.821333-58.517334 0L256 890.282667V332.010667c0-6.613333 5.461333-12.010667 12.181333-12.010667H755.84z" fill="#111111" p-id="1631"></path><path d="M617.386667 465.749333a32 32 0 0 1 0 64H362.944a32 32 0 0 1 0-64h254.485333zM363.648 593.770667l159.744 3.562666a32 32 0 1 1-1.450667 64l-159.722666-3.584a32 32 0 0 1 1.429333-64z" fill="#111111" p-id="1632"></path><path d="M853.333333 92.821333a117.333333 117.333333 0 0 1 117.333334 117.333334v269.141333a85.568 85.568 0 0 1-85.568 85.546667h-53.568v-64h53.546666c11.946667 0 21.589333-9.642667 21.589334-21.546667V210.133333a53.333333 53.333333 0 0 0-53.333334-53.333333H170.666667a53.333333 53.333333 0 0 0-53.333334 53.333333v257.216c0 18.496 14.997333 33.493333 33.493334 33.493334h65.493333v64H150.826667a97.493333 97.493333 0 0 1-97.493334-97.493334V210.154667a117.333333 117.333333 0 0 1 117.333334-117.333334h682.666666z" fill="#111111" p-id="1633"></path></svg>