<?xml version="1.0" standalone="no"?><!DOCTYPE svg PUBLIC "-//W3C//DTD SVG 1.1//EN" "http://www.w3.org/Graphics/SVG/1.1/DTD/svg11.dtd"><svg t="1678784736515" class="icon" viewBox="0 0 1024 1024" version="1.1" xmlns="http://www.w3.org/2000/svg" p-id="932" xmlns:xlink="http://www.w3.org/1999/xlink" width="200" height="200"><path d="M969.14 457.14c-30.29 0-54.86 24.55-54.86 54.86 0 221.82-180.46 402.29-402.29 402.29S109.71 733.82 109.71 512 290.18 109.71 512 109.71c93.21 0 184.11 32.62 255.86 91.86 3.35 2.76 6.97 4.93 10.71 6.77l-53.14 88.16c-7.67 12.73 3.46 28.73 17.38 24.99L926.74 272c8.91-2.4 14.64-11.06 13.35-20.2L911.76 50.27c-2.4-17.05-24.88-21.64-33.77-6.9l-43.06 71.45C743.96 40.84 629.47 0 512 0 229.68 0 0 229.68 0 512s229.68 512 512 512 512-229.68 512-512c0-30.3-24.57-54.86-54.86-54.86z" fill="#A0A0A0" p-id="933"></path></svg>