<?xml version="1.0" standalone="no"?><!DOCTYPE svg PUBLIC "-//W3C//DTD SVG 1.1//EN" "http://www.w3.org/Graphics/SVG/1.1/DTD/svg11.dtd"><svg t="1678810595001" class="icon" viewBox="0 0 1024 1024" version="1.1" xmlns="http://www.w3.org/2000/svg" p-id="7391" xmlns:xlink="http://www.w3.org/1999/xlink" width="200" height="200"><path d="M512 134.095238c212.089905 0 377.904762 148.187429 377.904762 354.279619 0 56.56381-17.871238 98.986667-64.926476 117.857524-18.358857 7.338667-36.230095 8.704-56.173715 6.802286-6.144-0.585143-12.263619-1.462857-19.407238-2.681905l-22.186666-4.022857c-29.842286-5.12-43.032381-3.900952-56.783238 5.144381-5.851429 3.876571-11.995429 9.411048-18.456381 17.066666-18.041905 21.382095-20.358095 38.034286-11.117715 73.289143l3.120762 11.166476 4.559238 15.408762 2.730667 9.654857c1.584762 5.851429 2.852571 11.093333 3.900952 16.335239 4.705524 23.844571 4.559238 45.29981-4.461714 67.535238C629.808762 873.569524 582.851048 889.904762 512 889.904762c-208.700952 0-377.904762-169.20381-377.904762-377.904762 0-208.700952 169.20381-377.904762 377.904762-377.904762z m-27.306667 509.44a73.142857 73.142857 0 1 0-144.847238 20.358095 73.142857 73.142857 0 0 0 144.847238-20.358095z m-33.913904-241.444571a73.142857 73.142857 0 1 0-144.871619 20.358095 73.142857 73.142857 0 0 0 144.871619-20.358095zM692.175238 368.152381a73.142857 73.142857 0 1 0-144.847238 20.358095 73.142857 73.142857 0 0 0 144.847238-20.358095z" p-id="7392"></path></svg>