<?xml version="1.0" standalone="no"?><!DOCTYPE svg PUBLIC "-//W3C//DTD SVG 1.1//EN" "http://www.w3.org/Graphics/SVG/1.1/DTD/svg11.dtd"><svg t="1678728079269" class="icon" viewBox="0 0 1024 1024" version="1.1" xmlns="http://www.w3.org/2000/svg" p-id="932" xmlns:xlink="http://www.w3.org/1999/xlink" width="200" height="200"><path d="M976.25 1011.9H619.08c-19.73 0-35.72-15.99-35.72-35.72 0-19.73 15.99-35.72 35.72-35.72h357.16c19.73 0 35.72 15.99 35.72 35.72 0 19.73-15.99 35.72-35.71 35.72zM985.69 177.59L846.47 38.37C829.38 21.28 805.69 12 780.04 12c-4.48 0-9.02 0.28-13.58 0.84-27.89 3.51-55.09 17.28-76.61 38.82L102.86 638.64c-11.07 11.04-18.92 24.54-22.65 38.96L14.44 930.4c-6.17 23.74-0.3 47.47 15.73 63.48 15.99 16.03 39.71 21.85 63.5 15.73l252.77-65.77c14.46-3.77 27.92-11.58 38.94-22.62L972.4 334.21c46.84-46.84 52.81-117.1 13.29-156.62zM775.33 83.73c5.15-0.7 14.65-0.84 20.61 5.15L935.18 228.1c9.99 9.99 6.42 35.89-13.29 55.62l-66.48 66.48-181.53-181.55 66.49-66.49c10.2-10.22 22.95-16.93 34.96-18.43zM328.44 874.72L86.36 937.66l62.99-242.1c0.52-2.02 1.99-4.4 3.98-6.38l470.04-470.02L804.91 400.7 334.88 870.73c-1.97 1.97-4.38 3.45-6.44 3.99z" fill="#939393" p-id="933"></path></svg>